name C:\Users\u0101727\Documents\MyRepositories\upper-imu-dc\OpenSim\subject0\MA\ResultsMA\grid_4nodes_9dim\angles_26.mot
datacolumns 10
datarows 37
range 2616.09000000 2616.45000000
endheader 
time	clav_prot	clav_elev	scapula_abduction	scapula_elevation	scapula_upward_rot	scapula_winging	plane_elv	shoulder_elv	axial_rot	
       2616.09000000	        -50.00000000	         10.00000000	         -3.33333333	         10.00000000	         30.00000000	         10.00000000	         90.00000000	        100.00000000	         90.00000000	
       2616.10000000	        -38.33333333	         10.00000000	         -3.33333333	         10.00000000	         30.00000000	         10.00000000	         90.00000000	        100.00000000	         90.00000000	
       2616.11000000	        -26.66666667	         10.00000000	         -3.33333333	         10.00000000	         30.00000000	         10.00000000	         90.00000000	        100.00000000	         90.00000000	
       2616.12000000	        -15.00000000	         10.00000000	         -3.33333333	         10.00000000	         30.00000000	         10.00000000	         90.00000000	        100.00000000	         90.00000000	
       2616.13000000	        -50.00000000	         20.00000000	         -3.33333333	         10.00000000	         30.00000000	         10.00000000	         90.00000000	        100.00000000	         90.00000000	
       2616.14000000	        -38.33333333	         20.00000000	         -3.33333333	         10.00000000	         30.00000000	         10.00000000	         90.00000000	        100.00000000	         90.00000000	
       2616.15000000	        -26.66666667	         20.00000000	         -3.33333333	         10.00000000	         30.00000000	         10.00000000	         90.00000000	        100.00000000	         90.00000000	
       2616.16000000	        -15.00000000	         20.00000000	         -3.33333333	         10.00000000	         30.00000000	         10.00000000	         90.00000000	        100.00000000	         90.00000000	
       2616.17000000	        -50.00000000	        -10.00000000	         15.00000000	         10.00000000	         30.00000000	         10.00000000	         90.00000000	        100.00000000	         90.00000000	
       2616.18000000	        -38.33333333	        -10.00000000	         15.00000000	         10.00000000	         30.00000000	         10.00000000	         90.00000000	        100.00000000	         90.00000000	
       2616.19000000	        -26.66666667	        -10.00000000	         15.00000000	         10.00000000	         30.00000000	         10.00000000	         90.00000000	        100.00000000	         90.00000000	
       2616.20000000	        -15.00000000	        -10.00000000	         15.00000000	         10.00000000	         30.00000000	         10.00000000	         90.00000000	        100.00000000	         90.00000000	
       2616.21000000	        -50.00000000	          0.00000000	         15.00000000	         10.00000000	         30.00000000	         10.00000000	         90.00000000	        100.00000000	         90.00000000	
       2616.22000000	        -38.33333333	          0.00000000	         15.00000000	         10.00000000	         30.00000000	         10.00000000	         90.00000000	        100.00000000	         90.00000000	
       2616.23000000	        -26.66666667	          0.00000000	         15.00000000	         10.00000000	         30.00000000	         10.00000000	         90.00000000	        100.00000000	         90.00000000	
       2616.24000000	        -15.00000000	          0.00000000	         15.00000000	         10.00000000	         30.00000000	         10.00000000	         90.00000000	        100.00000000	         90.00000000	
       2616.25000000	        -50.00000000	         10.00000000	         15.00000000	         10.00000000	         30.00000000	         10.00000000	         90.00000000	        100.00000000	         90.00000000	
       2616.26000000	        -38.33333333	         10.00000000	         15.00000000	         10.00000000	         30.00000000	         10.00000000	         90.00000000	        100.00000000	         90.00000000	
       2616.27000000	        -26.66666667	         10.00000000	         15.00000000	         10.00000000	         30.00000000	         10.00000000	         90.00000000	        100.00000000	         90.00000000	
       2616.28000000	        -15.00000000	         10.00000000	         15.00000000	         10.00000000	         30.00000000	         10.00000000	         90.00000000	        100.00000000	         90.00000000	
       2616.29000000	        -50.00000000	         20.00000000	         15.00000000	         10.00000000	         30.00000000	         10.00000000	         90.00000000	        100.00000000	         90.00000000	
       2616.30000000	        -38.33333333	         20.00000000	         15.00000000	         10.00000000	         30.00000000	         10.00000000	         90.00000000	        100.00000000	         90.00000000	
       2616.31000000	        -26.66666667	         20.00000000	         15.00000000	         10.00000000	         30.00000000	         10.00000000	         90.00000000	        100.00000000	         90.00000000	
       2616.32000000	        -15.00000000	         20.00000000	         15.00000000	         10.00000000	         30.00000000	         10.00000000	         90.00000000	        100.00000000	         90.00000000	
       2616.33000000	        -50.00000000	        -10.00000000	        -40.00000000	        -10.00000000	         60.00000000	         10.00000000	         90.00000000	        100.00000000	         90.00000000	
       2616.34000000	        -38.33333333	        -10.00000000	        -40.00000000	        -10.00000000	         60.00000000	         10.00000000	         90.00000000	        100.00000000	         90.00000000	
       2616.35000000	        -26.66666667	        -10.00000000	        -40.00000000	        -10.00000000	         60.00000000	         10.00000000	         90.00000000	        100.00000000	         90.00000000	
       2616.36000000	        -15.00000000	        -10.00000000	        -40.00000000	        -10.00000000	         60.00000000	         10.00000000	         90.00000000	        100.00000000	         90.00000000	
       2616.37000000	        -50.00000000	          0.00000000	        -40.00000000	        -10.00000000	         60.00000000	         10.00000000	         90.00000000	        100.00000000	         90.00000000	
       2616.38000000	        -38.33333333	          0.00000000	        -40.00000000	        -10.00000000	         60.00000000	         10.00000000	         90.00000000	        100.00000000	         90.00000000	
       2616.39000000	        -26.66666667	          0.00000000	        -40.00000000	        -10.00000000	         60.00000000	         10.00000000	         90.00000000	        100.00000000	         90.00000000	
       2616.40000000	        -15.00000000	          0.00000000	        -40.00000000	        -10.00000000	         60.00000000	         10.00000000	         90.00000000	        100.00000000	         90.00000000	
       2616.41000000	        -50.00000000	         10.00000000	        -40.00000000	        -10.00000000	         60.00000000	         10.00000000	         90.00000000	        100.00000000	         90.00000000	
       2616.42000000	        -38.33333333	         10.00000000	        -40.00000000	        -10.00000000	         60.00000000	         10.00000000	         90.00000000	        100.00000000	         90.00000000	
       2616.43000000	        -26.66666667	         10.00000000	        -40.00000000	        -10.00000000	         60.00000000	         10.00000000	         90.00000000	        100.00000000	         90.00000000	
       2616.44000000	        -15.00000000	         10.00000000	        -40.00000000	        -10.00000000	         60.00000000	         10.00000000	         90.00000000	        100.00000000	         90.00000000	
       2616.45000000	        -50.00000000	         20.00000000	        -40.00000000	        -10.00000000	         60.00000000	         10.00000000	         90.00000000	        100.00000000	         90.00000000	
